<?xml version="1.0" encoding="UTF-8"?>
<svg id="Layer_2" data-name="Layer 2" xmlns="http://www.w3.org/2000/svg" xmlns:xlink="http://www.w3.org/1999/xlink" viewBox="0 0 1153.17 128.25">
  <defs>
    <style>
      .cls-1 {
        fill: url(#linear-gradient);
      }

      .cls-1, .cls-2, .cls-3, .cls-4, .cls-5, .cls-6 {
        stroke-linejoin: round;
      }

      .cls-1, .cls-3 {
        stroke-width: .5px;
      }

      .cls-1, .cls-3, .cls-6 {
        stroke: #939598;
      }

      .cls-2 {
        stroke: #808285;
      }

      .cls-2, .cls-7, .cls-4, .cls-5, .cls-8, .cls-6 {
        fill: none;
      }

      .cls-2, .cls-7, .cls-5, .cls-8, .cls-6 {
        stroke-linecap: round;
      }

      .cls-2, .cls-5, .cls-6 {
        stroke-width: 3px;
      }

      .cls-9 {
        fill: #2bb673;
      }

      .cls-7, .cls-5 {
        stroke: #a7a9ac;
      }

      .cls-7, .cls-8 {
        stroke-miterlimit: 10;
      }

      .cls-3 {
        fill: #d5d7d8;
      }

      .cls-10 {
        fill: #939598;
      }

      .cls-11 {
        fill: #a7a9ac;
      }

      .cls-12 {
        fill: #e6e7e8;
      }

      .cls-4 {
        stroke-width: 4px;
      }

      .cls-4, .cls-8 {
        stroke: #bcbec0;
      }

      .cls-13 {
        fill: #ef4136;
      }

      .cls-14 {
        fill: #fbb040;
      }

      .cls-8 {
        stroke-width: 2px;
      }

      .cls-15 {
        fill: #bcbec0;
      }
    </style>
    <linearGradient id="linear-gradient" x1="576.59" y1="55.11" x2="576.59" y2="128" gradientUnits="userSpaceOnUse">
      <stop offset=".14" stop-color="#d5d7d8"/>
      <stop offset=".43" stop-color="#d1d3d4"/>
      <stop offset=".66" stop-color="#c7c9cb"/>
      <stop offset=".88" stop-color="#b6b8ba"/>
      <stop offset="1" stop-color="#a9abae"/>
    </linearGradient>
  </defs>
  <g id="Layer_1-2" data-name="Layer 1">
    <g>
      <path class="cls-12" d="M35.44,0h1082.3c19.42,0,35.19,15.77,35.19,35.19v19.93H.25v-19.93C.25,15.77,16.02,0,35.44,0Z"/>
      <rect class="cls-1" x=".25" y="55.11" width="1152.67" height="72.89"/>
      <polygon class="cls-3" points="340.36 55 132.36 55 144.81 17.67 327.92 17.67 340.36 55"/>
      <circle class="cls-13" cx="37.66" cy="30.81" r="8.89"/>
      <circle class="cls-9" cx="102.23" cy="30.81" r="8.89"/>
      <circle class="cls-14" cx="69.94" cy="30.81" r="8.89"/>
      <g>
        <line class="cls-5" x1="69.94" y1="91.56" x2="101.99" y2="91.56"/>
        <polygon class="cls-11" points="92.64 103.09 90.72 101.02 100.91 91.56 90.72 82.09 92.64 80.02 105.05 91.56 92.64 103.09"/>
      </g>
      <g>
        <line class="cls-6" x1="55.21" y1="91.56" x2="23.16" y2="91.56"/>
        <polygon class="cls-10" points="32.51 80.02 34.43 82.09 24.25 91.55 34.43 101.02 32.51 103.09 20.11 91.55 32.51 80.02"/>
      </g>
      <rect class="cls-12" x="120.92" y="72.89" width="987" height="37.33" rx="9.5" ry="9.5"/>
      <g>
        <path class="cls-8" d="M160.39,94.7c-1.28,3.44-4.59,5.9-8.48,5.9-4.99,0-9.04-4.04-9.04-9.04s4.05-9.04,9.04-9.04c3.43,0,6.42,1.91,7.95,4.73"/>
        <polygon class="cls-15" points="153.47 86.86 153.73 85.71 159.41 86.98 160.27 81.23 161.44 81.41 160.39 88.41 153.47 86.86"/>
      </g>
      <polygon class="cls-7" points="1084.18 81.24 1087.54 88.03 1095.03 89.12 1089.61 94.41 1090.89 101.87 1084.18 98.34 1077.48 101.87 1078.76 94.41 1073.34 89.12 1080.83 88.03 1084.18 81.24"/>
      <g>
        <line class="cls-2" x1="1117.88" y1="82.92" x2="1140.69" y2="82.92"/>
        <line class="cls-2" x1="1117.88" y1="100.19" x2="1140.69" y2="100.19"/>
        <line class="cls-2" x1="1117.88" y1="91.56" x2="1140.69" y2="91.56"/>
      </g>
      <g>
        <g>
          <line class="cls-4" x1="1128.64" y1="28.99" x2="1133.3" y2="25.26"/>
          <polygon class="cls-15" points="1135.91 31.6 1140.69 19.33 1127.68 21.32 1135.91 31.6"/>
        </g>
        <g>
          <line class="cls-4" x1="1126.95" y1="30.35" x2="1122.29" y2="34.08"/>
          <polygon class="cls-15" points="1119.67 27.74 1114.89 40 1127.9 38.01 1119.67 27.74"/>
        </g>
      </g>
    </g>
  </g>
</svg>